# xmcd
#
# Track frame offsets: 
#        150
#        12967
#        25900
#        35190
#        47955
#        58410
#        78317
#        89622
#        104715
#        121612
#        133842
#        151515
#
# Disc length: 2231 seconds
#
# Revision: 0
# Processed by: cddbd v1.5.2PL0 Copyright (c) Steve Scherf et al.
# Submitted via: ExactAudioCopyFreeDBPlugin 1.0
#
DISCID=a008b50c
DTITLE=Bar BQ Bob - Can't Get The Stuff No More
DYEAR=1990
DGENRE=Blues
TTITLE0=1. Can't Get The Stuff No More
TTITLE1=2. Backwater Blues
TTITLE2=3. It Hurts Me Too
TTITLE3=4. Whose Muddy Shoes
TTITLE4=5. Keys To The Highway
TTITLE5=6. Bob's Boogie
TTITLE6=7. Ain't Nobody Waitin
TTITLE7=8. Thinkin and Worryin
TTITLE8=9. Avalon Blues
TTITLE9=10. Bassett Ballet
TTITLE10=11. Hard Time Killin Floor Blues
TTITLE11=12. Dark Road Blues
EXTD=
EXTT0=
EXTT1=
EXTT2=
EXTT3=
EXTT4=
EXTT5=
EXTT6=
EXTT7=
EXTT8=
EXTT9=
EXTT10=
EXTT11=
PLAYORDER=
